<svg width="14" height="20" viewBox="0 0 14 20" fill="none" xmlns="http://www.w3.org/2000/svg">
<path d="M7.24472 19.9998L1.10025 20C0.520154 19.9993 0.0289066 19.607 0.00304945 18.9351L0.000231823 5.9415C0.000346067 5.86538 -0.0038813 5.78464 0.0193863 5.71195L0.0265841 5.69123C0.172892 5.25439 0.430054 5.20004 0.798033 5.19899L3.58683 5.20079C3.68626 5.20099 3.74251 5.24705 3.74251 5.11779L3.7427 4.08922C3.74285 3.80394 3.72952 3.50765 3.75378 3.22354C3.90462 1.4575 5.17638 0.161078 6.76094 0.0108937L6.78405 0.00632522C6.98756 0.00499552 7.20333 -0.010719 7.40535 0.0130279C8.80308 0.177318 9.90294 1.39793 10.1751 2.87932C10.2436 3.25201 10.2423 3.59681 10.2426 3.97767L10.2444 5.19603C10.3085 5.20825 10.3829 5.20066 10.4482 5.20062L13.1349 5.19741C13.5033 5.19745 13.8656 5.22863 13.9758 5.71161L13.9798 5.73033C14.0103 5.86651 13.9972 6.02474 13.9973 6.16475L13.9928 18.9908C13.9793 19.3738 13.7199 19.7355 13.4114 19.8936C13.2072 19.9983 13.0154 19.9979 12.7934 19.999L7.24472 19.9998ZM6.86623 1.83416C6.13321 1.92478 5.56466 2.50309 5.43925 3.29586C5.40765 3.49548 5.42722 3.72812 5.42722 3.9312L5.42794 5.19937L7.16018 5.19908L8.55944 5.19929L8.55906 3.5658C8.55643 2.53906 7.82394 1.76759 6.86623 1.83416ZM4.38448 7.52671C3.04227 7.64434 3.15332 9.73801 4.49949 9.70933C5.8618 9.52717 5.61172 7.4295 4.38448 7.52671ZM9.52643 7.53972C8.18091 7.69444 8.31667 9.74163 9.65777 9.70762C10.9735 9.53388 10.8602 7.45702 9.52643 7.53972Z" fill="#2C2826"/>
</svg>
